<svg xmlns="http://www.w3.org/2000/svg"
     xmlns:xlink="http://www.w3.org/1999/xlink"
     width="800" height="390"
     viewBox="0 0 800 390"
     role="img" aria-label="Developer metrics">
  <style>
    .card { fill: #0d1117; stroke: #30363d; stroke-width: 1; rx: 12; ry: 12; }
    .stat-card { fill: #161b22; stroke: #30363d; stroke-width: 1; rx: 6; ry: 6; }
    .title { fill: #e6edf3; font-family: system-ui, -apple-system, BlinkMacSystemFont, "Segoe UI", sans-serif; font-size: 18px; font-weight: 600; }
    .subtitle { fill: #7d8590; font-family: system-ui, -apple-system, BlinkMacSystemFont, "Segoe UI", sans-serif; font-size: 14px; }
    .stat-label { fill: #7d8590; font-family: system-ui, -apple-system, BlinkMacSystemFont, "Segoe UI", sans-serif; font-size: 12px; }
    .stat-value { fill: #e6edf3; font-family: system-ui, -apple-system, BlinkMacSystemFont, "Segoe UI", sans-serif; font-size: 15px; font-weight: 600; }
    .lang-label { fill: #e6edf3; font-family: system-ui, -apple-system, BlinkMacSystemFont, "Segoe UI", sans-serif; font-size: 12px; }
    .lang-dot { r: 4; }
    .footer { fill: #7d8590; font-family: system-ui, -apple-system, BlinkMacSystemFont, "Segoe UI", sans-serif; font-size: 11px; }
  </style>

  <rect
    class="card"
    x="8.5"
    y="8.5"
    width="783"
    height="373"
  />
    <circle cx="44" cy="44" r="24" fill="#161b22" />

  <text class="title" x="80" y="40">Luka Vukanović</text>
  <text class="subtitle" x="80" y="62">github: vukan322</text>

  <rect class="stat-card" x="24"  y="96" width="140" height="44" />
  <text class="stat-label" x="94" y="112" text-anchor="middle">Repos</text>
  <text class="stat-value" x="94" y="130" text-anchor="middle">
    10 pub · 23 priv
  </text>

  <rect class="stat-card" x="179" y="96" width="108" height="44" />
  <text class="stat-label" x="233" y="112" text-anchor="middle">Stars</text>
  <text class="stat-value" x="233" y="130" text-anchor="middle">48</text>

  <rect class="stat-card" x="302" y="96" width="108" height="44" />
  <text class="stat-label" x="356" y="112" text-anchor="middle">Followers</text>
  <text class="stat-value" x="356" y="130" text-anchor="middle">13</text>

  <rect class="stat-card" x="425" y="96" width="108" height="44" />
  <text class="stat-label" x="479" y="112" text-anchor="middle">Contributed</text>
  <text class="stat-value" x="479" y="130" text-anchor="middle">1</text>

  <rect class="stat-card" x="548" y="96" width="108" height="44" />
  <text class="stat-label" x="602" y="112" text-anchor="middle">Joined</text>
  <text class="stat-value" x="602" y="130" text-anchor="middle">3 years ago</text>

  <rect class="stat-card" x="671" y="96" width="108" height="44" />
  <text class="stat-label" x="725" y="112" text-anchor="middle">Languages</text>
  <text class="stat-value" x="725" y="130" text-anchor="middle">8</text>

  <text class="subtitle" x="24" y="174" style="fill: #e6edf3;">Most used languages</text>

  <text class="stat-label" x="648" y="33" text-anchor="start">
    <tspan class="stat-value" style="font-size: 13px; font-weight:600;">0</tspan>
    <tspan class="stat-label"> contribution streak</tspan>
  </text>

  <text class="stat-label" x="648" y="55" text-anchor="start">
    <tspan class="stat-value" style="font-size: 13px; font-weight:600;">0</tspan>
    <tspan class="stat-label"> longest streak</tspan>
  </text>

  <text class="stat-label" x="648" y="77" text-anchor="start">
    <tspan class="stat-value" style="font-size: 13px; font-weight:600;">0</tspan>
    <tspan class="stat-label"> commits this week</tspan>
  </text>
      <rect x="24" y="192" width="249.3333333333333" height="8" fill="#00ADD8" rx="1" />
      <rect x="273.33333333333326" y="192" width="224.4" height="8" fill="#3178c6" rx="1" />
      <rect x="497.73333333333323" y="192" width="99.73333333333333" height="8" fill="#e34c26" rx="1" />
      <rect x="597.4666666666666" y="192" width="74.8" height="8" fill="#f1e05a" rx="1" />
      <rect x="672.2666666666665" y="192" width="24.933333333333334" height="8" fill="#178600" rx="1" />
      <rect x="697.1999999999998" y="192" width="24.933333333333334" height="8" fill="#b07219" rx="1" />
      <rect x="722.1333333333331" y="192" width="24.933333333333334" height="8" fill="#555555" rx="1" />
      <rect x="747.0666666666664" y="192" width="24.933333333333334" height="8" fill="#000080" rx="1" />
      <circle class="lang-dot" cx="40" cy="217" fill="#00ADD8" />
      <text class="lang-label" x="50" y="220">
        Go 33%
      </text>
      <circle class="lang-dot" cx="200" cy="217" fill="#3178c6" />
      <text class="lang-label" x="210" y="220">
        TypeScript 30%
      </text>
      <circle class="lang-dot" cx="360" cy="217" fill="#e34c26" />
      <text class="lang-label" x="370" y="220">
        HTML 13%
      </text>
      <circle class="lang-dot" cx="520" cy="217" fill="#f1e05a" />
      <text class="lang-label" x="530" y="220">
        JavaScript 10%
      </text>
      <circle class="lang-dot" cx="680" cy="217" fill="#178600" />
      <text class="lang-label" x="690" y="220">
        C# 3%
      </text>
      <circle class="lang-dot" cx="40" cy="237" fill="#b07219" />
      <text class="lang-label" x="50" y="240">
        Java 3%
      </text>
      <circle class="lang-dot" cx="200" cy="237" fill="#555555" />
      <text class="lang-label" x="210" y="240">
        C 3%
      </text>
      <circle class="lang-dot" cx="360" cy="237" fill="#000080" />
      <text class="lang-label" x="370" y="240">
        Lua 3%
      </text>

  <text class="subtitle" x="24" y="266" style="fill: #e6edf3;">Issues &amp; pull requests</text>
    <text class="stat-label" x="24" y="292">
      Issues ( 52 open · 50 closed )
    </text>
    <rect x="24" y="300" width="381.3333333333333" height="8" rx="1" fill="#238636" />
    <rect x="405.3333333333333" y="300" width="366.66666666666663" height="8" rx="1" fill="#da3633" />
    <text class="stat-label" x="24" y="334">
      Pull requests ( 0 open · 188 merged · 6 closed )
    </text>
    <rect x="24" y="342" width="0" height="8" rx="1" fill="#238636" />
    <rect x="24" y="342" width="724.8659793814433" height="8" rx="1" fill="#8957e5" />
    <rect x="748.8659793814433" y="342" width="23.1340206185567" height="8" rx="1" fill="#da3633" />

  <text class="footer"
      x="400"
      y="370"
      text-anchor="middle">
    devmetrics · github.com/vukan322/devmetrics
  </text>
</svg>
